<?xml version="1.0" encoding="UTF-8" standalone="no"?>
<!-- Created with Inkscape (http://www.inkscape.org/) -->

<svg
   width="274"
   height="274"
   viewBox="0 0 274 274"
   version="1.1"
   id="svg1"
   xml:space="preserve"
   inkscape:version="1.4 (e7c3feb100, 2024-10-09)"
   sodipodi:docname="icon.svg"
   xmlns:inkscape="http://www.inkscape.org/namespaces/inkscape"
   xmlns:sodipodi="http://sodipodi.sourceforge.net/DTD/sodipodi-0.dtd"
   xmlns="http://www.w3.org/2000/svg"
   xmlns:svg="http://www.w3.org/2000/svg"><sodipodi:namedview
     id="namedview1"
     pagecolor="#ffffff"
     bordercolor="#000000"
     borderopacity="0.25"
     inkscape:showpageshadow="2"
     inkscape:pageopacity="0.0"
     inkscape:pagecheckerboard="0"
     inkscape:deskcolor="#d1d1d1"
     inkscape:document-units="px"
     inkscape:clip-to-page="false"
     inkscape:zoom="1.6020388"
     inkscape:cx="196.00025"
     inkscape:cy="191.63081"
     inkscape:window-width="2560"
     inkscape:window-height="1368"
     inkscape:window-x="1920"
     inkscape:window-y="0"
     inkscape:window-maximized="1"
     inkscape:current-layer="layer2" /><defs
     id="defs1" /><g
     inkscape:groupmode="layer"
     id="layer3"
     inkscape:label="Chicken"
     transform="rotate(-127.39716,260.48792,261.81504)"
     clip-path="none"><path
       stroke="none"
       fill="#989898"
       d="M 373.05,332.2 373,330 q 0,-28.15 19.95,-48.05 Q 412.85,262 441,262 q 28.1,0 48.05,19.95 Q 509,301.85 509,330 v 2 0.1 q -0.75,26.7 -19.95,45.9 v 0.05 q -4.15,4.15 -8.65,7.45 -17.2,12.5 -39.4,12.5 -23.8,0 -41.7,-14.3 h -0.05 l -6.3,-5.65 q -19.2,-19.2 -19.9,-45.85"
       id="path112" /><path
       stroke="none"
       fill="#ffffff"
       d="M 377.05,332 377,330 q 0,-26.5 18.75,-45.25 Q 414.5,266 441,266 q 26.45,0 45.2,18.75 Q 505,303.5 505,330 v 2 Q 504.3,306.8 486.2,288.75 467.45,270 441,270 414.5,270 395.75,288.75 377.7,306.8 377.05,332 m 101,50.25 Q 461.9,394 441,394 q -22.4,0 -39.25,-13.45 l 1.25,-2.3 q 15.1,-26.35 36.45,-26.35 21.35,0 36.4,26.35 l 2.2,4"
       id="path113" /><path
       stroke="none"
       fill="#f0f0f0"
       d="m 478.05,382.25 -2.2,-4 Q 460.8,351.9 439.45,351.9 418.1,351.9 403,378.25 l -1.25,2.3 -6,-5.35 Q 377.7,357.15 377.05,332 377.7,306.8 395.75,288.75 414.5,270 441,270 q 26.45,0 45.2,18.75 18.1,18.05 18.8,43.25 -0.7,25.15 -18.8,43.2 -3.9,3.95 -8.15,7.05"
       id="path114" /><path
       stroke="none"
       fill="#ffffff"
       d="m 484.7,332.9 q 0,-3.65 -2.45,-6.1 -2.55,-2.55 -6.2,-2.55 -3.5,0 -6.1,2.55 -2.55,2.45 -2.55,6.1 l 0.05,0.85 q 0.25,2.95 2.5,5.1 2.6,2.5 6.1,2.5 3.65,0 6.2,-2.5 2.15,-2.15 2.4,-5.1 l 0.05,-0.85 m 7.55,0.1 q 0,5.7 -4.05,9.6 -4.05,4.1 -9.75,4.1 -5.6,0 -9.75,-4.1 -3.95,-3.9 -3.95,-9.6 0,-5.75 3.95,-9.75 4.15,-4.05 9.75,-4.05 5.7,0 9.75,4.05 4.05,4 4.05,9.75"
       id="path115" /><path
       stroke="none"
       fill="#5b5b5b"
       d="m 484.7,332.9 -0.05,0.85 q -0.25,2.95 -2.4,5.1 -2.55,2.5 -6.2,2.5 -3.5,0 -6.1,-2.5 -2.25,-2.15 -2.5,-5.1 l -0.05,-0.85 q 0,-3.65 2.55,-6.1 2.6,-2.55 6.1,-2.55 3.65,0 6.2,2.55 2.45,2.45 2.45,6.1"
       id="path116" /><path
       stroke="none"
       fill="#5b5b5b"
       d="m 397.3,332.9 q 0,-3.65 2.45,-6.1 2.55,-2.55 6.2,-2.55 3.5,0 6.1,2.55 2.55,2.45 2.55,6.1 l -0.05,0.85 q -0.25,2.95 -2.5,5.1 -2.6,2.5 -6.1,2.5 -3.65,0 -6.2,-2.5 -2.15,-2.15 -2.4,-5.1 l -0.05,-0.85"
       id="path117" /><path
       stroke="none"
       fill="#ffffff"
       d="m 397.3,332.9 0.05,0.85 q 0.25,2.95 2.4,5.1 2.55,2.5 6.2,2.5 3.5,0 6.1,-2.5 2.25,-2.15 2.5,-5.1 l 0.05,-0.85 q 0,-3.65 -2.55,-6.1 -2.6,-2.55 -6.1,-2.55 -3.65,0 -6.2,2.55 -2.45,2.45 -2.45,6.1 m -7.55,0.1 q 0,-5.75 4.05,-9.75 4.05,-4.05 9.75,-4.05 5.6,0 9.75,4.05 3.95,4 3.95,9.75 0,5.7 -3.95,9.6 -4.15,4.1 -9.75,4.1 -5.7,0 -9.75,-4.1 -4.05,-3.9 -4.05,-9.6"
       id="path118" /><path
       stroke="none"
       fill="#d23007"
       d="m 423.35,371.15 q 0,-3.85 3.45,-6.95 l 2.05,-1.9 q 7.1,-6.9 10.55,-15.65 0.45,-0.45 1.1,-0.6 l 0.35,-0.05 h 0.3 l 0.3,0.05 q 0.65,0.15 1.15,0.6 3.5,8.75 10.6,15.7 l 2,1.85 q 3.45,3.1 3.45,6.95 l -0.05,0.15 q -1.95,6.25 -10.4,5.25 -3.4,-0.4 -6.2,-2.6 l -1,-0.9 -1.05,0.9 q -2.75,2.2 -6.2,2.6 -8.45,1 -10.35,-5.25 l -0.05,-0.15"
       id="path119" /><path
       stroke="none"
       fill="#c62c05"
       d="m 423.35,371.15 0.05,0.15 q 1.9,6.25 10.35,5.25 3.45,-0.4 6.2,-2.6 l 1.05,-0.9 1,0.9 q 2.8,2.2 6.2,2.6 8.45,1 10.4,-5.25 l 0.05,-0.15 -0.3,2.25 q -1.9,7.85 -10.25,6.6 -3.35,-0.55 -6.1,-3.3 l -1,-1.1 -1,1.1 q -2.75,2.75 -6.15,3.3 -8.3,1.25 -10.2,-6.6 -0.3,-1.15 -0.3,-2.25"
       id="path120" /><path
       stroke="none"
       fill="#ff9900"
       d="m 418.75,342.05 q 1.1,-6.95 6.3,-12.25 l 2.65,-2.25 q 5.8,-4.35 13.4,-4.35 7.6,0 13.4,4.35 l 2.55,2.25 q 5.25,5.3 6.3,12.25 -0.5,1.35 -1.95,2.6 -1.3,-5.05 -5.5,-9 l -2.35,-1.95 q -5.4,-3.75 -12.45,-3.75 -7.05,0 -12.45,3.75 l -2.45,1.95 q -4.15,3.95 -5.45,9 -1.5,-1.2 -2,-2.6"
       id="path121" /><path
       stroke="none"
       fill="#f39100"
       d="m 420.75,344.65 q 1.3,-5.05 5.45,-9 l 2.45,-1.95 q 5.4,-3.75 12.45,-3.75 7.05,0 12.45,3.75 l 2.35,1.95 q 4.2,3.95 5.5,9 -1.6,1.3 -4.35,2.4 -6.6,2.7 -15.95,2.7 -9.4,0 -16.05,-2.7 -2.75,-1.1 -4.3,-2.4"
       id="path122" /><path
       stroke="none"
       fill="#e08600"
       d="m 420.75,344.65 q 1.55,1.3 4.3,2.4 6.65,2.7 16.05,2.7 9.35,0 15.95,-2.7 2.75,-1.1 4.35,-2.4 1.45,-1.25 1.95,-2.6 l 0.3,3.7 -0.1,1.5 q -0.4,5 -6.5,8.6 -6.6,3.85 -15.95,3.85 -9.4,0 -16.05,-3.85 -6.05,-3.6 -6.5,-8.6 l -0.05,-1.5 q 0,-1.95 0.25,-3.7 0.5,1.4 2,2.6"
       id="path123" /><path
       stroke="none"
       fill="#f53707"
       d="m 452.3,278.2 q -0.3,-2.25 -2,-3.95 -2.1,-2.1 -5.05,-2.1 -2.45,0 -4.25,1.4 -1.85,-1.4 -4.25,-1.4 -2.95,0 -5.1,2.1 -1.65,1.7 -2,3.95 L 429.6,277 q 0,-3 2.05,-5.1 2.15,-2.1 5.1,-2.1 2.4,0 4.25,1.4 1.8,-1.4 4.25,-1.4 2.95,0 5.05,2.1 2.1,2.1 2.1,5.1 l -0.1,1.2 m -22.45,0.85 q 0.3,1.85 -1.05,3.55 -1.65,2.2 -1.95,4.95 l -0.05,-1.15 q 0,-4.1 2.8,-7.05 l 0.25,-0.3 m 25.3,8.5 q -0.3,-2.75 -1.95,-4.95 -1.35,-1.7 -1.05,-3.55 l 0.25,0.3 q 1.4,1.45 2.1,3.25 0.7,1.75 0.7,3.8 l -0.05,1.15"
       id="path124" /><path
       stroke="none"
       fill="#d23007"
       d="m 455.15,287.55 q -0.3,2.65 -1.75,4.7 l 0.3,1.95 0.05,0.95 -0.05,1.2 q -0.4,4.2 -3.45,7.25 -3.55,3.55 -8.5,3.55 l -0.75,-0.05 -0.75,0.05 q -5,0 -8.45,-3.55 -3.1,-3.05 -3.5,-7.2 l -0.05,-1.25 0.05,-1 0.3,-1.9 q -1.5,-2.05 -1.75,-4.7 0.3,-2.75 1.95,-4.95 1.35,-1.7 1.05,-3.55 l -0.2,-0.85 q 0.35,-2.25 2,-3.95 2.15,-2.1 5.1,-2.1 2.4,0 4.25,1.4 1.8,-1.4 4.25,-1.4 2.95,0 5.05,2.1 1.7,1.7 2,3.95 l -0.15,0.85 q -0.3,1.85 1.05,3.55 1.65,2.2 1.95,4.95"
       id="path125" /></g><g
     inkscape:groupmode="layer"
     id="layer4"
     inkscape:label="Cow"
     transform="rotate(-26.163709,228.7744,815.07431)"
     clip-path="none"><path
       stroke="none"
       fill="#2c2b2b"
       d="m 410,14 q 8.7,0 16.6,1.9 l 0.35,0.1 q 17.45,4.25 31.15,17.9 l 1.35,1.4 -0.05,-0.05 Q 478,54.8 478,82 v 2 0.1 q -0.45,15.85 -7.3,29 -1.6,3.1 -3.55,6.05 -3.9,5.75 -9.05,10.9 Q 438.15,150 410,150 q -28.15,0 -48.05,-19.95 -5.2,-5.2 -9,-10.9 -10.4,-15.5 -10.9,-34.95 L 342,82 q 0,-28.15 19.95,-48.1 5.4,-5.45 11.4,-9.3 h -0.05 q 9.15,-6 19.75,-8.55 Q 401.1,14 410,14"
       id="path260" /><path
       stroke="none"
       fill="#ffffff"
       d="m 426,19.85 -0.45,3.9 H 425.5 L 420,22.7 410,22 l -10,0.7 -5.55,1.1 V 23.75 L 394,19.9 q 7.6,-1.9 16,-1.9 8.35,0 15.95,1.85 H 426"
       id="path261" /><path
       stroke="none"
       fill="#f0f0f0"
       d="m 394.45,23.8 5.55,-1.1 10,-0.7 10,0.7 5.5,1.05 h 0.05 q -3.25,15.45 -4.2,31.2 -0.75,12.15 -0.1,24.5 1.2,22.2 42.55,37.45 -3.65,5.45 -8.55,10.3 Q 436.5,146 410,146 q -26.5,0 -45.25,-18.8 -4.9,-4.9 -8.5,-10.3 41.3,-15.25 42.5,-37.45 0.65,-12.35 -0.05,-24.5 -1,-15.7 -4.25,-31.15"
       id="path262" /><path
       stroke="none"
       fill="#4f4e4e"
       d="m 394.45,23.8 q -10.15,2.4 -18.95,8.15 -5.65,3.7 -10.75,8.75 Q 346.7,58.8 346.05,84 L 346,82 q 0,-26.5 18.75,-45.3 5.1,-5.1 10.75,-8.75 8.6,-5.65 18.5,-8.05 l 0.45,3.85 v 0.05 m 31.1,-0.05 0.45,-3.9 q 16.4,4.05 29.25,16.85 L 456.5,38 Q 474,56.4 474,82 v 2 Q 473.3,59.7 456.5,42 l -1.25,-1.3 q -13,-12.95 -29.7,-16.95"
       id="path263" /><path
       stroke="none"
       fill="#414040"
       d="m 425.55,23.75 q 16.7,4 29.7,16.95 l 1.25,1.3 q 16.8,17.7 17.5,42 -0.4,14.9 -6.85,27.25 l -3.35,5.65 q -41.35,-15.25 -42.55,-37.45 -0.65,-12.35 0.1,-24.5 0.95,-15.75 4.2,-31.2 m -69.3,93.15 q -9.75,-14.55 -10.2,-32.9 0.65,-25.2 18.7,-43.3 5.1,-5.05 10.75,-8.75 8.8,-5.75 18.95,-8.15 3.25,15.45 4.25,31.15 0.7,12.15 0.05,24.5 -1.2,22.2 -42.5,37.45"
       id="path264" /><path
       stroke="none"
       fill="#ffc4ff"
       d="M 372.55,113.9 372.5,112 v -1 Q 372.9,98.4 383.45,89.35 394.45,80 410,80 q 15.5,0 26.5,9.35 10.55,9.05 11,21.65 v 1 l -0.05,1.9 Q 446.6,102 436.5,93.35 425.5,84 410,84 q -15.55,0 -26.55,9.35 -10.1,8.65 -10.9,20.55"
       id="path265" /><path
       stroke="none"
       fill="#ffaaff"
       d="m 372.55,113.9 q 0.8,-11.9 10.9,-20.55 11,-9.35 26.55,-9.35 15.5,0 26.5,9.35 10.1,8.65 10.95,20.55 -0.65,10.2 -8.05,18 l -2.9,2.7 q -2.1,1.8 -4.4,3.3 -9.85,-2 -22.1,-2 -12.3,0 -22.1,2 l -4.45,-3.3 -2.85,-2.7 q -7.4,-7.8 -8.05,-18 m 55.95,-19.75 -0.85,-0.6 q -1.4,-0.7 -3.6,-0.05 l -0.25,0.1 q -2.85,0.85 -5.35,3.35 l -0.15,0.15 q -0.65,0.7 -1,1.55 -0.4,0.9 -0.4,2 0,2.15 1.5,3.65 1.5,1.5 3.65,1.5 2.05,0 3.55,-1.4 l 0.15,-0.15 q 2.05,-2.05 3,-4.3 l 0.45,-1.3 0.15,-0.5 q 0.4,-1.9 -0.25,-3.15 l -0.6,-0.85 m -34.1,10.25 q 1.5,1.4 3.55,1.4 2.15,0 3.65,-1.5 1.5,-1.5 1.5,-3.65 0,-1.1 -0.35,-2 l -1.05,-1.55 -0.15,-0.15 q -2.55,-2.55 -5.4,-3.4 l -0.2,-0.05 q -2.2,-0.65 -3.55,0.05 -0.5,0.2 -0.9,0.6 L 390.9,95 q -0.65,1.25 -0.2,3.15 l 0.1,0.5 0.45,1.3 q 0.95,2.25 3,4.3 l 0.15,0.15"
       id="path266" /><path
       stroke="none"
       fill="#a66ea6"
       d="m 394.4,104.4 -0.15,-0.15 q -2.05,-2.05 -3,-4.3 l -0.45,-1.3 -0.1,-0.5 q -0.45,-1.9 0.2,-3.15 l 0.6,-0.85 q 0.4,-0.4 0.9,-0.6 1.35,-0.7 3.55,-0.05 l 0.2,0.05 q 2.85,0.85 5.4,3.4 l 0.15,0.15 1.05,1.55 q 0.35,0.9 0.35,2 0,2.15 -1.5,3.65 -1.5,1.5 -3.65,1.5 -2.05,0 -3.55,-1.4 m 34.1,-10.25 0.6,0.85 q 0.65,1.25 0.25,3.15 l -0.15,0.5 -0.45,1.3 q -0.95,2.25 -3,4.3 l -0.15,0.15 q -1.5,1.4 -3.55,1.4 -2.15,0 -3.65,-1.5 -1.5,-1.5 -1.5,-3.65 0,-1.1 0.4,-2 0.35,-0.85 1,-1.55 l 0.15,-0.15 q 2.5,-2.5 5.35,-3.35 l 0.25,-0.1 q 2.2,-0.65 3.6,0.05 l 0.85,0.6"
       id="path267" /><path
       stroke="none"
       fill="#f0a0f0"
       d="m 432.1,137.9 q -9.6,6.1 -22.1,6.1 -12.55,0 -22.1,-6.1 9.8,-2 22.1,-2 12.25,0 22.1,2"
       id="path268" /><path
       stroke="none"
       fill="#ffffff"
       d="m 451,58.05 q 0,4.1 -2.95,7 -2.9,2.95 -7.05,2.95 -4.1,0 -7.05,-2.95 -2.9,-2.9 -2.9,-7 0,-4.2 2.9,-7.1 2.95,-2.9 7.05,-2.9 4.15,0 7.05,2.9 2.95,2.9 2.95,7.1 m -3.8,0.15 q 0,-2.9 -2,-4.95 -2,-2 -4.95,-2 -2.8,0 -4.9,2 -2,2.05 -2,4.95 0,2.85 2,4.85 2.1,2 4.9,2 2.95,0 4.95,-2 2,-2 2,-4.85 M 369,58.05 q 0,-4.2 2.9,-7.1 2.95,-2.9 7.1,-2.9 4.05,0 7.05,2.9 2.9,2.9 2.9,7.1 0,4.1 -2.9,7 -3,2.95 -7.05,2.95 -4.15,0 -7.1,-2.95 -2.9,-2.9 -2.9,-7 m 3.75,0.15 q 0,2.85 2.05,4.85 2,2 4.9,2 2.85,0 4.9,-2 2.05,-2 2.05,-4.85 0,-2.9 -2.05,-4.95 -2.05,-2 -4.9,-2 -2.9,0 -4.9,2 -2.05,2.05 -2.05,4.95"
       id="path269" /><path
       stroke="none"
       fill="#5b5b5b"
       d="m 372.75,58.2 q 0,-2.9 2.05,-4.95 2,-2 4.9,-2 2.85,0 4.9,2 2.05,2.05 2.05,4.95 0,2.85 -2.05,4.85 -2.05,2 -4.9,2 -2.9,0 -4.9,-2 -2.05,-2 -2.05,-4.85 m 74.45,0 q 0,2.85 -2,4.85 -2,2 -4.95,2 -2.8,0 -4.9,-2 -2,-2 -2,-4.85 0,-2.9 2,-4.95 2.1,-2 4.9,-2 2.95,0 4.95,2 2,2.05 2,4.95"
       id="path270" /></g><g
     inkscape:groupmode="layer"
     id="layer2"
     inkscape:label="Pig"
     transform="rotate(38.288079,105.41313,223.89156)"><path
       stroke="none"
       fill="#9c619c"
       d="m 148.01143,123.90296 q 1.9,1.15 3.7,2.45 h 0.05 q 4.9,3.5 9.4,8 19.85,19.85 19.85,48.05 v 2 0.15 q -0.5,16.15 -7.6,29.6 -2.1,3.9 -4.75,7.6 l -0.4,0.5 q -3.2,4.25 -7.15,8.25 l -4.9,4.5 -0.05,0.05 q -2.15,1.8 -4.45,3.4 -16.9,11.95 -38.7,11.95 -21.850004,0 -38.700004,-11.9 v -0.05 l -4.35,-3.3 -5.05,-4.65 q -8.1,-8.1 -12.85,-17.45 l -0.25,-0.6 -5.55,-16.7 -0.2,-1.15 -0.05,-0.3 -0.2,-1 v -0.2 l -0.05,-0.2 v -0.2 l -0.05,-0.2 -0.15,-1.5 -0.1,-0.5 v -0.3 l -0.05,-0.35 v -0.05 l -0.05,-0.25 v -0.1 -0.05 l -0.05,-0.4 -0.05,-0.55 -0.05,-0.55 -0.15,-3.3 -0.05,-2.2 q 0,-8.3 1.75,-15.95 4.15,-18.15 18.2,-32.1 4.5,-4.55 9.35,-7.95 l 0.05,-0.05 3.75,-2.4 h -0.05 q 15.55,-9.55 34.950004,-9.55 19.45,0 35,9.5"
       id="path75" /><path
       stroke="none"
       fill="#ffaaff"
       d="m 49.061426,184.40296 -0.05,-2 q 0,-7.85 1.65,-15.05 3.9,-17.05 17.1,-30.2 4.25,-4.25 8.85,-7.5 l 3.55,-2.3 q 14.600004,-8.95 32.850004,-8.95 18.3,0 32.9,8.9 l 3.5,2.3 q 4.65,3.3 8.9,7.55 18.7,18.7 18.7,45.25 v 2 q -0.7,-25.25 -18.7,-43.25 -4.4,-4.4 -9.2,-7.75 -2.8,-1.95 -5.75,-3.55 l -3.15,2.5 q -11.25,8.05 -27.2,8.05 -15.95,0 -27.250004,-8.05 l -3.1,-2.45 q -2.95,1.6 -5.75,3.55 -4.8,3.35 -9.15,7.7 -11.65,11.6 -16,26.2 -2.45,8.05 -2.7,17.05"
       id="path76" /><path
       stroke="none"
       fill="#ee9fee"
       d="m 49.061426,184.40296 q 0.25,-9 2.7,-17.05 4.35,-14.6 16,-26.2 4.35,-4.35 9.15,-7.7 2.8,-1.95 5.75,-3.55 l 3.1,2.45 q 11.300004,8.05 27.250004,8.05 15.95,0 27.2,-8.05 l 3.15,-2.5 q 2.95,1.6 5.75,3.55 4.8,3.35 9.2,7.75 18,18 18.7,43.25 -0.45,15.2 -7.15,27.85 -1.95,3.7 -4.45,7.15 h -0.05 q -3.15,4.3 -7.1,8.25 l -4.65,4.3 -4.2,3.2 q -15.9,11.25 -36.4,11.25 -20.550004,0 -36.400004,-11.2 l -4.1,-3.15 -4.8,-4.4 q -7.6,-7.6 -12.1,-16.45 l -5.55,-16.7 v -0.2 l -0.2,-1.1 -0.05,-0.25 -0.05,-0.5 -0.1,-0.55 -0.15,-1.25 v -0.2 l -0.1,-0.6 v -0.25 l -0.05,-0.2 v -0.25 l -0.05,-0.3 -0.05,-0.65 v -0.25 l -0.05,-0.3 -0.15,-3.25 m 112.450004,0.5 q 0,-5.2 -3.65,-8.85 -3.65,-3.65 -8.85,-3.65 -5.1,0 -8.8,3.65 -3.65,3.65 -3.65,8.85 0,5.15 3.65,8.75 3.7,3.7 8.8,3.7 5.2,0 8.85,-3.7 3.65,-3.6 3.65,-8.75 m -97.000004,0 q 0,5.15 3.65,8.75 3.65,3.7 8.85,3.7 5.1,0 8.8,-3.7 3.65,-3.6 3.65,-8.75 0,-5.2 -3.65,-8.85 -3.7,-3.65 -8.8,-3.65 -5.2,0 -8.85,3.65 -3.65,3.65 -3.65,8.85"
       id="path77" /><path
       stroke="none"
       fill="#ffffff"
       d="m 64.511426,184.90296 q 0,-5.2 3.65,-8.85 3.65,-3.65 8.85,-3.65 5.1,0 8.8,3.65 3.65,3.65 3.65,8.85 0,5.15 -3.65,8.75 -3.7,3.7 -8.8,3.7 -5.2,0 -8.85,-3.7 -3.65,-3.6 -3.65,-8.75 m 92.250004,0.2 q 0,-3.6 -2.5,-6.15 -2.5,-2.5 -6.15,-2.5 -3.55,0 -6.15,2.5 -2.5,2.55 -2.5,6.15 0,3.6 2.5,6.05 2.6,2.55 6.15,2.55 3.65,0 6.15,-2.55 2.5,-2.45 2.5,-6.05 m 4.75,-0.2 q 0,5.15 -3.65,8.75 -3.65,3.7 -8.85,3.7 -5.1,0 -8.8,-3.7 -3.65,-3.6 -3.65,-8.75 0,-5.2 3.65,-8.85 3.7,-3.65 8.8,-3.65 5.2,0 8.85,3.65 3.65,3.65 3.65,8.85 m -92.300004,0.2 q 0,3.6 2.55,6.05 2.5,2.55 6.15,2.55 3.55,0 6.1,-2.55 2.55,-2.45 2.55,-6.05 0,-3.6 -2.55,-6.15 -2.55,-2.5 -6.1,-2.5 -3.65,0 -6.15,2.5 -2.55,2.55 -2.55,6.15"
       id="path78" /><path
       stroke="none"
       fill="#5b5b5b"
       d="m 69.211426,185.10296 q 0,-3.6 2.55,-6.15 2.5,-2.5 6.15,-2.5 3.55,0 6.1,2.5 2.55,2.55 2.55,6.15 0,3.6 -2.55,6.05 -2.55,2.55 -6.1,2.55 -3.65,0 -6.15,-2.55 -2.55,-2.45 -2.55,-6.05 m 87.550004,0 q 0,3.6 -2.5,6.05 -2.5,2.55 -6.15,2.55 -3.55,0 -6.15,-2.55 -2.5,-2.45 -2.5,-6.05 0,-3.6 2.5,-6.15 2.6,-2.5 6.15,-2.5 3.65,0 6.15,2.5 2.5,2.55 2.5,6.15"
       id="path79" /><path
       stroke="none"
       fill="#ffc4ff"
       d="m 138.96143,210.90296 q -0.7,-9.45 -7.6,-16.3 l -1.8,-1.65 q -7.05,-5.95 -16.55,-5.95 -9.5,0 -16.6,5.9 l -1.85,1.7 q -6.800004,6.85 -7.450004,16.35 l -0.1,-1.1 v -0.85 q 0,-10.8 7.550004,-18.4 l 1.85,-1.7 q 7.1,-5.9 16.6,-5.9 9.5,0 16.55,5.95 l 1.8,1.65 q 7.65,7.6 7.65,18.4 v 0.85 l -0.05,1.05"
       id="path80" /><path
       stroke="none"
       fill="#ffaaff"
       d="m 138.96143,210.90296 q -0.3,2.9 -1.5,5.5 -1.5,3.2 -4.4,5.9 l -1.7,1.45 q -7.6,6.05 -18.35,6.05 -10.8,0 -18.45,-6.05 l -1.600004,-1.35 q -2.9,-2.75 -4.4,-5.95 -1.2,-2.6 -1.45,-5.5 0.65,-9.5 7.450004,-16.35 l 1.85,-1.7 q 7.1,-5.9 16.6,-5.9 9.5,0 16.55,5.95 l 1.8,1.65 q 6.9,6.85 7.6,16.3 m -7.45,-8.5 q -1.5,-1.5 -4.45,-0.65 l -0.25,0.1 q -2.85,0.85 -5.35,3.35 l -0.15,0.15 q -0.65,0.7 -1,1.55 -0.4,0.9 -0.4,2 0,2.15 1.5,3.65 1.5,1.5 3.65,1.5 2.05,0 3.55,-1.4 l 0.15,-0.15 q 2.05,-2.05 3,-4.3 l 0.45,-1.3 q 0.65,-2.25 -0.1,-3.65 l -0.6,-0.85 m -34.1,10.25 q 1.5,1.4 3.55,1.4 2.15,0 3.65,-1.5 1.5,-1.5 1.5,-3.65 0,-1.1 -0.35,-2 l -1.05,-1.55 -0.15,-0.15 q -2.55,-2.55 -5.4,-3.4 l -0.2,-0.05 q -2.95,-0.85 -4.45,0.65 l -0.600004,0.85 q -0.75,1.4 -0.1,3.65 0.15,0.65 0.45,1.3 0.950004,2.25 3.000004,4.3 l 0.15,0.15"
       id="path81" /><path
       stroke="none"
       fill="#af74af"
       d="m 97.41143,212.65296 -0.15,-0.15 q -2.05,-2.05 -3.000004,-4.3 -0.3,-0.65 -0.45,-1.3 -0.65,-2.25 0.1,-3.65 l 0.600004,-0.85 q 1.5,-1.5 4.45,-0.65 l 0.2,0.05 q 2.85,0.85 5.4,3.4 l 0.15,0.15 1.05,1.55 q 0.35,0.9 0.35,2 0,2.15 -1.5,3.65 -1.5,1.5 -3.65,1.5 -2.05,0 -3.55,-1.4 m 34.1,-10.25 0.6,0.85 q 0.75,1.4 0.1,3.65 l -0.45,1.3 q -0.95,2.25 -3,4.3 l -0.15,0.15 q -1.5,1.4 -3.55,1.4 -2.15,0 -3.65,-1.5 -1.5,-1.5 -1.5,-3.65 0,-1.1 0.4,-2 0.35,-0.85 1,-1.55 l 0.15,-0.15 q 2.5,-2.5 5.35,-3.35 l 0.25,-0.1 q 2.95,-0.85 4.45,0.65"
       id="path82" /><path
       stroke="none"
       fill="#000000"
       fill-opacity="0.101961"
       d="m 92.961426,222.40296 1.600004,1.35 q 7.65,6.05 18.45,6.05 10.75,0 18.35,-6.05 l 1.7,-1.45 -0.45,1.1 q -1.55,3.25 -4.9,5.9 -6.1,4.85 -14.7,4.85 -8.65,0 -14.8,-4.85 -3.3,-2.6 -4.800004,-5.85 l -0.45,-1.05"
       id="path83" /></g></svg>
